<svg width="512" height="512" viewBox="0 0 512 512" xmlns="http://www.w3.org/2000/svg">
  <rect width="512" height="512" rx="120" fill="#7A8F4F"/>
  <!-- Coffee cup with steam, hand-feel illustration -->
  <g fill="none" stroke="#F2EAD0" stroke-width="14" stroke-linecap="round" stroke-linejoin="round">
    <!-- Steam wisps -->
    <path d="M195 105 Q205 130 195 155 Q185 180 195 200"/>
    <path d="M256 95 Q266 125 256 155 Q246 185 256 210"/>
    <path d="M317 105 Q327 130 317 155 Q307 180 317 200"/>
  </g>
  <!-- Cup body -->
  <path d="M160 235 L160 360 Q160 410 210 410 L302 410 Q352 410 352 360 L352 235 Z" fill="#F2EAD0"/>
  <!-- Cup rim accent -->
  <rect x="148" y="222" width="216" height="22" rx="11" fill="#F2EAD0"/>
  <!-- Handle -->
  <path d="M352 270 Q410 270 410 310 Q410 350 352 350" fill="none" stroke="#F2EAD0" stroke-width="22" stroke-linecap="round"/>
  <!-- Hand-lettered "K" centered on cup -->
  <text x="256" y="350" text-anchor="middle" font-family="'Architects Daughter','Caveat',cursive" font-size="140" font-weight="700" fill="#7A8F4F">K</text>
</svg>
